<?xml version="1.0" encoding="UTF-8"?>
<svg width="32px" height="45px" viewBox="0 0 32 45" version="1.1" xmlns="http://www.w3.org/2000/svg" xmlns:xlink="http://www.w3.org/1999/xlink">
    <!-- Generator: sketchtool 54.1 (76490) - https://sketchapp.com -->
    <title>668A8934-ADB1-4A3E-B927-6C66FC4C339A@3x</title>
    <desc>Created with sketchtool.</desc>
    <g id="Calculators" stroke="none" stroke-width="1" fill="none" fill-rule="evenodd">
        <g id="Calculator---Calculators-Landing" transform="translate(-1200.000000, -862.000000)" fill="#CC0000">
            <g id="Group" transform="translate(1127.000000, 842.000000)">
                <g id="request-calc-icon" transform="translate(73.000000, 20.000000)">
                    <path d="M28.125,14.060625 C28.125,14.58 27.705,15 27.1875,15 L4.6875,15 C4.17,15 3.75,14.58 3.75,14.060625 L3.75,4.685625 C3.75,4.17 4.17,3.75 4.6875,3.75 L27.1875,3.75 C27.705,3.75 28.125,4.17 28.125,4.6875 L28.125,14.060625 Z M25.3125,22.5 L23.4375,22.5 C22.92,22.5 22.5,22.078125 22.5,21.5625 C22.5,21.045 22.92,20.625 23.4375,20.625 L25.3125,20.625 C25.83,20.625 26.25,21.045 26.25,21.5625 C26.25,22.078125 25.83,22.5 25.3125,22.5 L25.3125,22.5 Z M25.3125,28.125 L23.4375,28.125 C22.92,28.125 22.5,27.703125 22.5,27.1875 C22.5,26.67 22.92,26.25 23.4375,26.25 L25.3125,26.25 C25.83,26.25 26.25,26.67 26.25,27.1875 C26.25,27.703125 25.83,28.125 25.3125,28.125 L25.3125,28.125 Z M25.3125,33.75 L23.4375,33.75 C22.92,33.75 22.5,33.328125 22.5,32.8125 C22.5,32.295 22.92,31.875 23.4375,31.875 L25.3125,31.875 C25.83,31.875 26.25,32.295 26.25,32.8125 C26.25,33.328125 25.83,33.75 25.3125,33.75 L25.3125,33.75 Z M17.8125,31.875 L19.6875,31.875 C20.205,31.875 20.625,32.295 20.625,32.8125 C20.625,33.328125 20.205,33.75 19.6875,33.75 L17.8125,33.75 C17.295,33.75 16.875,33.328125 16.875,32.8125 C16.875,32.295 17.295,31.875 17.8125,31.875 L17.8125,31.875 Z M16.875,21.5625 C16.875,21.045 17.295,20.625 17.8125,20.625 L19.6875,20.625 C20.205,20.625 20.625,21.045 20.625,21.5625 C20.625,22.078125 20.205,22.5 19.6875,22.5 L17.8125,22.5 C17.295,22.5 16.875,22.078125 16.875,21.5625 L16.875,21.5625 Z M17.8125,26.25 L19.6875,26.25 C20.205,26.25 20.625,26.67 20.625,27.1875 C20.625,27.703125 20.205,28.125 19.6875,28.125 L17.8125,28.125 C17.295,28.125 16.875,27.703125 16.875,27.1875 C16.875,26.67 17.295,26.25 17.8125,26.25 L17.8125,26.25 Z M25.3125,39.375 L17.8125,39.375 C17.295,39.375 16.875,38.953125 16.875,38.4375 C16.875,37.92 17.295,37.5 17.8125,37.5 L25.3125,37.5 C25.83,37.5 26.25,37.92 26.25,38.4375 C26.25,38.953125 25.83,39.375 25.3125,39.375 L25.3125,39.375 Z M14.0625,22.5 L12.1875,22.5 C11.67,22.5 11.25,22.078125 11.25,21.5625 C11.25,21.045 11.67,20.625 12.1875,20.625 L14.0625,20.625 C14.58,20.625 15,21.045 15,21.5625 C15,22.078125 14.58,22.5 14.0625,22.5 L14.0625,22.5 Z M14.0625,28.125 L12.1875,28.125 C11.67,28.125 11.25,27.703125 11.25,27.1875 C11.25,26.67 11.67,26.25 12.1875,26.25 L14.0625,26.25 C14.58,26.25 15,26.67 15,27.1875 C15,27.703125 14.58,28.125 14.0625,28.125 L14.0625,28.125 Z M14.0625,33.75 L12.1875,33.75 C11.67,33.75 11.25,33.328125 11.25,32.8125 C11.25,32.295 11.67,31.875 12.1875,31.875 L14.0625,31.875 C14.58,31.875 15,32.295 15,32.8125 C15,33.328125 14.58,33.75 14.0625,33.75 L14.0625,33.75 Z M14.0625,39.375 L12.1875,39.375 C11.67,39.375 11.25,38.953125 11.25,38.4375 C11.25,37.92 11.67,37.5 12.1875,37.5 L14.0625,37.5 C14.58,37.5 15,37.92 15,38.4375 C15,38.953125 14.58,39.375 14.0625,39.375 L14.0625,39.375 Z M8.4375,22.5 L6.5625,22.5 C6.045,22.5 5.625,22.078125 5.625,21.5625 C5.625,21.045 6.045,20.625 6.5625,20.625 L8.4375,20.625 C8.955,20.625 9.375,21.045 9.375,21.5625 C9.375,22.078125 8.955,22.5 8.4375,22.5 L8.4375,22.5 Z M8.4375,28.125 L6.5625,28.125 C6.045,28.125 5.625,27.703125 5.625,27.1875 C5.625,26.67 6.045,26.25 6.5625,26.25 L8.4375,26.25 C8.955,26.25 9.375,26.67 9.375,27.1875 C9.375,27.703125 8.955,28.125 8.4375,28.125 L8.4375,28.125 Z M8.4375,33.75 L6.5625,33.75 C6.045,33.75 5.625,33.328125 5.625,32.8125 C5.625,32.295 6.045,31.875 6.5625,31.875 L8.4375,31.875 C8.955,31.875 9.375,32.295 9.375,32.8125 C9.375,33.328125 8.955,33.75 8.4375,33.75 L8.4375,33.75 Z M8.4375,39.375 L6.5625,39.375 C6.045,39.375 5.625,38.953125 5.625,38.4375 C5.625,37.92 6.045,37.5 6.5625,37.5 L8.4375,37.5 C8.955,37.5 9.375,37.92 9.375,38.4375 C9.375,38.953125 8.955,39.375 8.4375,39.375 L8.4375,39.375 Z M29.0625,2.66944847e-15 L2.8125,2.66944847e-15 C1.261875,-0.001875 0,1.26 0,2.8125 L0,42.1875 C0,43.738125 1.261875,45 2.8125,45 L29.0625,45 C30.613125,45 31.875,43.738125 31.875,42.1875 L31.875,2.8125 C31.875,1.26 30.613125,-0.001875 29.0625,2.66944847e-15 L29.0625,2.66944847e-15 Z" id="Fill-1"></path>
                    <path d="M23.4375,7.5 C22.92,7.5 22.5,7.92 22.5,8.4375 L22.5,10.3125 C22.5,10.83 22.92,11.25 23.4375,11.25 C23.955,11.25 24.375,10.83 24.375,10.3125 L24.375,8.4375 C24.375,7.92 23.955,7.5 23.4375,7.5" id="Fill-4"></path>
                </g>
            </g>
        </g>
    </g>
</svg>