<?xml version="1.0" encoding="UTF-8"?>
<svg width="50px" height="50px" viewBox="0 0 50 50" version="1.1" xmlns="http://www.w3.org/2000/svg" xmlns:xlink="http://www.w3.org/1999/xlink">
    <!-- Generator: sketchtool 54.1 (76490) - https://sketchapp.com -->
    <title>7FAD4709-8D61-4CC8-AD36-231A850BF3EB@3x</title>
    <desc>Created with sketchtool.</desc>
    <defs>
        <polygon id="path-1" points="0 0 25.7387375 0 25.7387375 49.999925 0 49.999925"></polygon>
        <polygon id="path-3" points="0 50 49.977625 50 49.977625 0 0 0"></polygon>
    </defs>
    <g id="Calculators" stroke="none" stroke-width="1" fill="none" fill-rule="evenodd">
        <g id="Calculator---Calculators-Landing" transform="translate(-199.000000, -714.000000)">
            <g id="Group" transform="translate(136.000000, 699.000000)">
                <g id="parallel-series-resistor-icon" transform="translate(63.000000, 15.000000)">
                    <path d="M49.5985625,28.6013 L44.9328125,26.25655 L49.5991875,23.90755 C49.8311875,23.790925 49.9775625,23.5533 49.9775625,23.29355 C49.9775625,23.033925 49.8313125,22.796425 49.5993125,22.67955 L44.9318125,20.328675 L49.5988125,17.980675 C49.8309375,17.863925 49.9773125,17.626175 49.9773125,17.3663 C49.9773125,17.10655 49.8306875,16.868925 49.5985625,16.752175 L47.0356875,15.4643 L47.0356875,1.8298 C47.0356875,1.45005 46.7278125,1.1423 46.3481875,1.1423 L33.5998125,1.1423 L33.5998125,1.14505 L33.1151875,1.14505 L33.1151875,2.52005 L33.6151875,2.52005 L33.6151875,2.5173 L45.6606875,2.5173 L45.6606875,15.8883 C45.6606875,16.148175 45.8073125,16.385925 46.0394375,16.502675 L47.7594375,17.366925 L43.0938125,19.714175 C42.8616875,19.830925 42.7154375,20.068425 42.7153125,20.32805 C42.7153125,20.587925 42.8615625,20.82555 43.0935625,20.942425 L47.7614375,23.2933 L43.0936875,25.642925 C42.8615625,25.7598 42.7151875,25.997425 42.7153125,26.2573 C42.7154375,26.51705 42.8618125,26.7548 43.0940625,26.8713 L47.7594375,29.215925 L43.1773125,31.52105 C43.1346875,31.538675 43.0905625,31.562175 43.0425625,31.591675 C42.7288125,31.784675 42.6229375,32.19055 42.8023125,32.512175 C42.8736875,32.64005 42.9800625,32.73655 43.1029375,32.79605 C43.2260625,32.8578 44.8945625,33.70055 45.6586875,34.08655 L45.6604375,47.4828 L33.6076875,47.4828 L33.5753125,47.4828 L33.1076875,47.4828 L33.1076875,48.8578 L33.5753125,48.8578 L33.6076875,48.8578 L46.3480625,48.8578 C46.5304375,48.8578 46.7053125,48.785425 46.8343125,48.6563 C46.9631875,48.527425 47.0355625,48.35255 47.0355625,48.170175 L47.0336875,33.663425 C47.0336875,33.404175 46.8876875,33.1668 46.6561875,33.049925 L44.9304375,32.1783 L49.5988125,29.829675 C49.8309375,29.71305 49.9773125,29.475175 49.9773125,29.215425 C49.9773125,28.95555 49.8306875,28.71805 49.5985625,28.6013" id="Fill-1" fill="#CC0000"></path>
                    <g id="Group-5">
                        <mask id="mask-2" fill="white">
                            <use xlink:href="#path-1"></use>
                        </mask>
                        <g id="Clip-4"></g>
                        <path d="M22.0471125,17.793925 L17.3814875,20.14105 C17.1494875,20.2578 17.0029875,20.4953 17.0029875,20.75505 C17.0028625,21.014925 17.1492375,21.252425 17.3812375,21.3693 L22.0491125,23.7203 L17.3813625,26.0698 C17.1492375,26.186675 17.0028625,26.4243 17.0029875,26.684175 C17.0029875,26.943925 17.1496125,27.181675 17.3817375,27.298175 L22.0471125,29.6428 L17.4649875,31.94805 C17.4223625,31.965675 17.3781125,31.989175 17.3302375,32.018675 C17.0166125,32.211675 16.9107375,32.61755 17.0901125,32.939175 C17.1614875,33.06705 17.2677375,33.16355 17.3907375,33.22305 C17.4997375,33.277675 18.9409875,34.00555 19.9463625,34.513425 L19.9481125,46.8788 C19.6636125,47.010425 19.4237375,47.2208 19.2559875,47.482675 L8.0121125,47.482675 C7.8448625,47.221675 7.6059875,47.011925 7.3228625,46.88005 L7.3211125,34.0903 C7.3211125,33.83105 7.1751125,33.593675 6.9436125,33.4768 L5.2179875,32.605175 L9.8862375,30.25655 C10.1183625,30.1398 10.2648625,29.90205 10.2647375,29.6423 C10.2647375,29.382425 10.1181125,29.144925 9.8859875,29.028175 L5.2203625,26.683425 L9.8866125,24.33455 C10.1186125,24.217925 10.2649875,23.9803 10.2651125,23.72055 C10.2651125,23.460925 10.1187375,23.223425 9.8868625,23.10655 L5.2192375,20.75555 L9.8862375,18.407675 C10.1183625,18.290925 10.2648625,18.053175 10.2647375,17.793425 C10.2647375,17.53355 10.1181125,17.295925 9.8859875,17.179175 L7.3231125,15.8913 L7.3231125,3.119675 C7.6062375,2.987925 7.8449875,2.778175 8.0121125,2.5173 L19.2559875,2.5173 C19.4237375,2.7793 19.6637375,2.98955 19.9482375,3.1213 L19.9483625,16.3153 C19.9483625,16.575175 20.0949875,16.8128 20.3272375,16.92955 L22.0471125,17.793925 Z M20.6341125,-7.5e-05 C19.9026125,-7.5e-05 19.2836125,0.48005 19.0738625,1.1423 L8.1942375,1.1423 C7.9846125,0.48005 7.3654875,-7.5e-05 6.6339875,-7.5e-05 C5.9023625,-7.5e-05 5.2833625,0.48005 5.0736125,1.1423 L-1.25e-05,1.1423 L-1.25e-05,2.5173 L5.2557375,2.5173 C5.4234875,2.7793 5.6634875,2.98955 5.9481125,3.1213 L5.9481125,16.3153 C5.9481125,16.575175 6.0947375,16.8128 6.3269875,16.92955 L8.0468625,17.793925 L3.3812375,20.14105 C3.1492375,20.2578 3.0028625,20.4953 3.0027375,20.75505 C3.0027375,21.014925 3.1489875,21.252425 3.3809875,21.3693 L8.0488625,23.7203 L3.3811125,26.0698 C3.1489875,26.186675 3.0027375,26.4243 3.0027375,26.684175 C3.0028625,26.943925 3.1493625,27.181675 3.3814875,27.298175 L8.0468625,29.6428 L3.4647375,31.94805 C3.4221125,31.965675 3.3778625,31.989175 3.3299875,32.018675 C3.0163625,32.211675 2.9104875,32.61755 3.0898625,32.939175 C3.1612375,33.067175 3.2676125,33.163675 3.3907375,33.223175 C3.5011125,33.278425 4.9413625,34.0058 5.9462375,34.513425 L5.9478625,46.8788 C5.6633625,47.010425 5.4234875,47.2208 5.2557375,47.482675 L-1.25e-05,47.482675 L-1.25e-05,48.857675 L5.0736125,48.857675 C5.2832375,49.519925 5.9023625,49.999925 6.6339875,49.999925 C7.3654875,49.999925 7.9846125,49.519925 8.1942375,48.857675 L19.0738625,48.857675 C19.2834875,49.519925 19.9026125,49.999925 20.6341125,49.999925 C21.3657375,49.999925 21.9848625,49.519925 22.1944875,48.857675 L25.0872375,48.857675 L25.0872375,48.8578 L25.5872375,48.8578 L25.5872375,48.857675 L25.6889875,48.857675 L25.6889875,47.482675 L22.0123625,47.482675 C21.8451125,47.221675 21.6062375,47.011925 21.3231125,46.88005 L21.3213625,34.0903 C21.3212375,33.83105 21.1753625,33.593675 20.9438625,33.4768 L19.2182375,32.605175 L23.8864875,30.25655 C24.1186125,30.1398 24.2651125,29.90205 24.2649875,29.6423 C24.2649875,29.382425 24.1183625,29.144925 23.8862375,29.028175 L19.2206125,26.683425 L23.8868625,24.33455 C24.1188625,24.217925 24.2652375,23.9803 24.2653625,23.72055 C24.2653625,23.460925 24.1189875,23.223425 23.8871125,23.10655 L19.2194875,20.75555 L23.8864875,18.407675 C24.1186125,18.290925 24.2651125,18.053175 24.2649875,17.793425 C24.2649875,17.53355 24.1183625,17.295925 23.8862375,17.179175 L21.3233625,15.8913 L21.3232375,3.119675 C21.6064875,2.987925 21.8452375,2.7783 22.0123625,2.5173 L25.1158625,2.5173 L25.1158625,2.52005 L25.6157375,2.52005 L25.6157375,2.5173 L25.7387375,2.5173 L25.7387375,1.1423 L22.1944875,1.1423 C21.9847375,0.48005 21.3657375,-7.5e-05 20.6341125,-7.5e-05 L20.6341125,-7.5e-05 Z" id="Fill-3" fill="#CC0000" mask="url(#mask-2)"></path>
                    </g>
                    <mask id="mask-4" fill="white">
                        <use xlink:href="#path-3"></use>
                    </mask>
                    <g id="Clip-7"></g>
                    <polygon id="Fill-6" fill="#CC0000" mask="url(#mask-4)" points="26.687125 2.52 27.758375 2.52 27.758375 1.145 26.687125 1.145"></polygon>
                    <polygon id="Fill-8" fill="#CC0000" mask="url(#mask-4)" points="30.9725 2.52 32.043875 2.52 32.043875 1.145 30.9725 1.145"></polygon>
                    <polygon id="Fill-9" fill="#CC0000" mask="url(#mask-4)" points="28.829875 2.52 29.901125 2.52 29.901125 1.145 28.829875 1.145"></polygon>
                    <polygon id="Fill-10" fill="#CC0000" mask="url(#mask-4)" points="28.81025 48.85775 29.884625 48.85775 29.884625 47.48275 28.81025 47.48275"></polygon>
                    <polygon id="Fill-11" fill="#CC0000" mask="url(#mask-4)" points="30.958875 48.85775 32.03325 48.85775 32.03325 47.48275 30.958875 47.48275"></polygon>
                    <polygon id="Fill-12" fill="#CC0000" mask="url(#mask-4)" points="26.6615 48.85775 27.735875 48.85775 27.735875 47.48275 26.6615 47.48275"></polygon>
                </g>
            </g>
        </g>
    </g>
</svg>