<?xml version="1.0" encoding="UTF-8"?>
<svg width="47px" height="47px" viewBox="0 0 47 47" version="1.1" xmlns="http://www.w3.org/2000/svg" xmlns:xlink="http://www.w3.org/1999/xlink">
    <!-- Generator: sketchtool 54.1 (76490) - https://sketchapp.com -->
    <title>10712FAB-F4A5-4A20-B8BB-1A9FE8995D9B@3x</title>
    <desc>Created with sketchtool.</desc>
    <g id="Calculators" stroke="none" stroke-width="1" fill="none" fill-rule="evenodd">
        <g id="Calculator---Calculators-Landing" transform="translate(-993.000000, -714.000000)" fill="#CC0000">
            <g id="Group" transform="translate(929.000000, 699.000000)">
                <g id="resistor-color-code-icon" transform="translate(64.000000, 15.000000)">
                    <path d="M45.1008128,13.0092178 L43.3864475,14.7235831 L32.2764169,3.61355252 L33.9867333,1.90311702 C33.9929258,1.89704362 34.0025718,1.89597184 34.0099551,1.90073529 C36.3073666,3.42384816 38.3953055,5.11904062 40.2157766,6.93939271 C42.0299363,8.75379049 43.6742789,10.7882596 45.1031946,12.9862341 C45.107958,12.9933793 45.1068862,13.0031444 45.1008128,13.0092178 L45.1008128,13.0092178 Z M39.0654037,19.0446269 C39.0604021,19.0496286 39.0530187,19.0514148 39.0459926,19.0487949 L37.2305231,18.3711943 C37.1303715,18.3110558 37.0152152,18.2784261 36.896248,18.2779498 L36.8937472,18.2779498 C36.7201195,18.2779498 36.5535179,18.3469007 36.4306209,18.4697977 L29.9918667,24.9085519 L22.0914481,17.0081333 L28.6179688,10.4814935 C28.8079114,10.29167 28.862691,10.0050295 28.7561089,9.758521 L27.9689489,7.93733531 C27.9658527,7.93042831 27.9674008,7.92244953 27.9726406,7.91709065 L29.1282533,6.76159697 L40.238403,17.8717467 L39.0654037,19.0446269 Z M18.4268076,37.3098345 L19.0535584,39.0413483 C19.0560592,39.0481362 19.054392,39.0558768 19.0493904,39.0608784 L17.6778743,40.4322754 L6.56772459,29.3221257 L7.91935329,27.970497 C7.92292587,27.9669244 7.92768932,27.9651381 7.93257186,27.9651381 C7.9348345,27.9651381 7.93733531,27.9656145 7.93959794,27.9666863 L9.76566617,28.7509882 C10.0121747,28.8569749 10.2978625,28.801838 10.4873287,28.6122527 L13.3070524,25.7926481 L21.2073519,33.6929476 L18.4695595,36.430859 C18.3463053,36.5541133 18.2772353,36.7215485 18.2778307,36.8958908 C18.278307,37.0474875 18.3313004,37.1936063 18.4268076,37.3098345 L18.4268076,37.3098345 Z M13.0037398,45.1064099 C12.9975473,45.1124833 12.9881395,45.113436 12.9808753,45.1090298 C10.9122284,43.8020584 8.91050797,42.1866537 7.03120819,40.3072349 C5.13702264,38.4130493 3.41074867,36.2943862 1.90025895,34.0103124 C1.8954955,34.0030481 1.89656728,33.9934021 1.90264067,33.9872096 L3.41944197,32.4704083 L14.5295917,43.580558 L13.0037398,45.1064099 Z M18.9434036,20.1562969 L26.8437031,28.0565964 L24.3556346,30.5449031 L16.4550969,22.6443654 L18.9434036,20.1562969 Z M42.4941344,7.43907853 L47,2.9332129 L44.066668,0 L39.55199,4.51467801 C38.0747253,3.19686981 36.4620596,1.95468136 34.7337612,0.808952751 C34.2091864,0.461220963 33.505744,0.531958183 33.0605997,0.976745247 L27.046507,6.99083796 C26.6588813,7.37846364 26.5489647,7.95400738 26.7664162,8.45714669 L27.3770903,9.86998571 L9.87486825,27.3722078 L8.45655126,26.7629627 C7.95436464,26.5472975 7.37977358,26.6575714 6.9931006,27.0442443 L0.976387988,33.061076 C0.531839097,33.5055058 0.460982791,34.20871 0.807761888,34.7328085 C1.93348401,36.4351461 3.17733966,38.0470973 4.51753608,39.5491319 L0,44.066668 L2.93333198,47 L7.43312421,42.5002078 C8.98755676,43.9155476 10.6124883,45.1620231 12.2813628,46.2165317 C12.5017914,46.3556244 12.7479426,46.4236227 12.9923075,46.4236227 C13.3342041,46.4236227 13.6722899,46.2904843 13.9299925,46.0326626 L19.9757622,39.987012 C20.3383797,39.6241563 20.4599668,39.0780268 20.2853863,38.5954894 L19.7197268,37.0331972 L37.0505838,19.7022211 L38.587987,20.2759785 C39.0742161,20.4574659 39.625109,20.3376652 39.9916564,19.9708796 L46.0269464,13.9355896 C46.4679227,13.4947323 46.5413989,12.7953389 46.2015268,12.2724313 C45.0864034,10.556756 43.8436195,8.93765963 42.4941344,7.43907853 L42.4941344,7.43907853 Z" id="Fill-1"></path>
                </g>
            </g>
        </g>
    </g>
</svg>